<?xml version="1.0" encoding="UTF-8"?>
<svg width="700pt" height="700pt" version="1.1" viewBox="0 0 700 700" xmlns="http://www.w3.org/2000/svg" xmlns:xlink="http://www.w3.org/1999/xlink">
 <defs>
  <symbol id="o" overflow="visible">
   <path d="m29.312-1.75c-1.5117 0.78125-3.0898 1.3711-4.7344 1.7656-1.6367 0.40625-3.3398 0.60938-5.1094 0.60938-5.3125 0-9.5273-1.4844-12.641-4.4531-3.1055-2.9688-4.6562-7-4.6562-12.094s1.5508-9.125 4.6562-12.094c3.1133-2.9688 7.3281-4.4531 12.641-4.4531 1.7695 0 3.4727 0.19922 5.1094 0.59375 1.6445 0.39844 3.2227 0.99219 4.7344 1.7812v6.5938c-1.5312-1.0391-3.0391-1.8008-4.5156-2.2812-1.4805-0.48828-3.0391-0.73438-4.6719-0.73438-2.9375 0-5.2461 0.94531-6.9219 2.8281-1.6797 1.875-2.5156 4.4648-2.5156 7.7656 0 3.293 0.83594 5.8828 2.5156 7.7656 1.6758 1.875 3.9844 2.8125 6.9219 2.8125 1.6328 0 3.1914-0.23828 4.6719-0.71875 1.4766-0.48828 2.9844-1.2539 4.5156-2.2969z"/>
  </symbol>
  <symbol id="c" overflow="visible">
   <path d="m21.453-17.406c-0.67969-0.3125-1.3516-0.53906-2.0156-0.6875-0.65625-0.15625-1.3203-0.23438-1.9844-0.23438-1.9688 0-3.4844 0.63281-4.5469 1.8906-1.0547 1.2617-1.5781 3.0703-1.5781 5.4219v11.016h-7.6562v-23.922h7.6562v3.9219c0.97656-1.5625 2.1016-2.7031 3.375-3.4219 1.2812-0.71875 2.8125-1.0781 4.5938-1.0781 0.25 0 0.52344 0.011719 0.82812 0.03125 0.30078 0.023438 0.73438 0.070312 1.2969 0.14062z"/>
  </symbol>
  <symbol id="a" overflow="visible">
   <path d="m27.562-12.031v2.1875h-17.891c0.1875 1.793 0.83203 3.1367 1.9375 4.0312 1.1133 0.89844 2.6719 1.3438 4.6719 1.3438 1.6016 0 3.25-0.23438 4.9375-0.70312 1.6875-0.47656 3.4219-1.2031 5.2031-2.1719v5.8906c-1.8047 0.6875-3.6094 1.2031-5.4219 1.5469-1.8125 0.35156-3.6211 0.53125-5.4219 0.53125-4.3359 0-7.7031-1.0977-10.109-3.2969-2.3984-2.207-3.5938-5.2969-3.5938-9.2656 0-3.9062 1.1758-6.9727 3.5312-9.2031 2.3633-2.2383 5.6094-3.3594 9.7344-3.3594 3.7578 0 6.7695 1.1367 9.0312 3.4062 2.2578 2.2617 3.3906 5.2812 3.3906 9.0625zm-7.8594-2.5312c0-1.457-0.42969-2.6289-1.2812-3.5156-0.84375-0.89453-1.9492-1.3438-3.3125-1.3438-1.4922 0-2.6992 0.41797-3.625 1.25-0.91797 0.83594-1.4922 2.0391-1.7188 3.6094z"/>
  </symbol>
  <symbol id="b" overflow="visible">
   <path d="m14.391-10.766c-1.5938 0-2.793 0.27344-3.5938 0.8125-0.80469 0.54297-1.2031 1.3398-1.2031 2.3906 0 0.96875 0.32031 1.7305 0.96875 2.2812 0.64453 0.54297 1.5469 0.8125 2.7031 0.8125 1.4375 0 2.6445-0.51562 3.625-1.5469 0.98828-1.0312 1.4844-2.3203 1.4844-3.875v-0.875zm11.688-2.8906v13.656h-7.7031v-3.5469c-1.0312 1.4492-2.1875 2.5078-3.4688 3.1719s-2.8398 1-4.6719 1c-2.4805 0-4.4961-0.72266-6.0469-2.1719-1.543-1.4453-2.3125-3.3203-2.3125-5.625 0-2.8125 0.96094-4.8672 2.8906-6.1719 1.9375-1.3125 4.9688-1.9688 9.0938-1.9688h4.5156v-0.60938c0-1.207-0.48047-2.0938-1.4375-2.6562-0.94922-0.5625-2.4375-0.84375-4.4688-0.84375-1.6367 0-3.1562 0.16797-4.5625 0.5-1.4062 0.32422-2.7188 0.8125-3.9375 1.4688v-5.8281c1.6445-0.40625 3.2891-0.70703 4.9375-0.90625 1.6562-0.20703 3.3047-0.3125 4.9531-0.3125 4.3203 0 7.4375 0.85547 9.3438 2.5625 1.9141 1.6992 2.875 4.4609 2.875 8.2812z"/>
  </symbol>
  <symbol id="h" overflow="visible">
   <path d="m12.031-30.719v6.7969h7.875v5.4688h-7.875v10.141c0 1.1172 0.21875 1.8711 0.65625 2.2656 0.4375 0.38672 1.3125 0.57812 2.625 0.57812h3.9375v5.4688h-6.5625c-3.0234 0-5.1641-0.62891-6.4219-1.8906-1.2617-1.2578-1.8906-3.3984-1.8906-6.4219v-10.141h-3.7969v-5.4688h3.7969v-6.7969z"/>
  </symbol>
  <symbol id="g" overflow="visible">
   <path d="m19.953-20.422v-12.812h7.6875v33.234h-7.6875v-3.4531c-1.0547 1.4062-2.2148 2.4375-3.4844 3.0938-1.2734 0.65625-2.7422 0.98438-4.4062 0.98438-2.9492 0-5.3711-1.1719-7.2656-3.5156-1.8867-2.3438-2.8281-5.3594-2.8281-9.0469s0.94141-6.7031 2.8281-9.0469c1.8945-2.3438 4.3164-3.5156 7.2656-3.5156 1.6562 0 3.1172 0.33594 4.3906 1 1.2812 0.65625 2.4453 1.6836 3.5 3.0781zm-5.0469 15.484c1.6445 0 2.8945-0.59766 3.75-1.7969 0.86328-1.1953 1.2969-2.9297 1.2969-5.2031 0-2.2812-0.43359-4.0195-1.2969-5.2188-0.85547-1.1953-2.1055-1.7969-3.75-1.7969-1.625 0-2.8711 0.60156-3.7344 1.7969-0.85547 1.1992-1.2812 2.9375-1.2812 5.2188 0 2.2734 0.42578 4.0078 1.2812 5.2031 0.86328 1.1992 2.1094 1.7969 3.7344 1.7969z"/>
  </symbol>
  <symbol id="f" overflow="visible">
   <path d="m16.406-4.9375c1.6328 0 2.8828-0.59766 3.75-1.7969 0.86328-1.1953 1.2969-2.9297 1.2969-5.2031 0-2.2812-0.43359-4.0195-1.2969-5.2188-0.86719-1.1953-2.1172-1.7969-3.75-1.7969-1.6367 0-2.8906 0.60547-3.7656 1.8125-0.875 1.1992-1.3125 2.9336-1.3125 5.2031 0 2.2617 0.4375 3.9961 1.3125 5.2031 0.875 1.1992 2.1289 1.7969 3.7656 1.7969zm-5.0781-15.484c1.0508-1.3945 2.2188-2.4219 3.5-3.0781 1.2812-0.66406 2.7539-1 4.4219-1 2.9453 0 5.3672 1.1719 7.2656 3.5156 1.8945 2.3438 2.8438 5.3594 2.8438 9.0469s-0.94922 6.7031-2.8438 9.0469c-1.8984 2.3438-4.3203 3.5156-7.2656 3.5156-1.668 0-3.1406-0.33594-4.4219-1s-2.4492-1.6914-3.5-3.0781v3.4531h-7.6562v-33.234h7.6562z"/>
  </symbol>
  <symbol id="e" overflow="visible">
   <path d="m0.53125-23.922h7.6562l6.4219 16.234 5.4688-16.234h7.6562l-10.062 26.188c-1.0117 2.6641-2.1953 4.5234-3.5469 5.5781-1.3438 1.0625-3.1211 1.5938-5.3281 1.5938h-4.4219v-5.0156h2.3906c1.3008 0 2.2422-0.21094 2.8281-0.625 0.59375-0.40625 1.0547-1.1484 1.3906-2.2188l0.20312-0.65625z"/>
  </symbol>
  <symbol id="d" overflow="visible">
   <path d="m16.797-19.547c1.2891 0 2.2695-0.28125 2.9375-0.84375 0.67578-0.57031 1.0156-1.4141 1.0156-2.5312 0-1.0938-0.33984-1.9258-1.0156-2.5-0.66797-0.58203-1.6484-0.875-2.9375-0.875h-4.5625v6.75zm0.26562 13.953c1.6562 0 2.8984-0.34766 3.7344-1.0469 0.83203-0.69531 1.25-1.7539 1.25-3.1719 0-1.375-0.41797-2.4062-1.25-3.0938-0.82422-0.69531-2.0703-1.0469-3.7344-1.0469h-4.8281v8.3594zm7.6562-11.469c1.7578 0.51172 3.125 1.4609 4.0938 2.8438 0.96875 1.375 1.4531 3.0703 1.4531 5.0781 0 3.0742-1.043 5.3672-3.125 6.875-2.0742 1.5117-5.2305 2.2656-9.4688 2.2656h-13.656v-31.891h12.344c4.4258 0 7.6328 0.67188 9.625 2.0156 1.9883 1.3359 2.9844 3.4766 2.9844 6.4219 0 1.5547-0.36719 2.875-1.0938 3.9688-0.73047 1.0859-1.7812 1.8906-3.1562 2.4219z"/>
  </symbol>
  <symbol id="n" overflow="visible">
   <path d="m3.6719-33.234h7.6562v18.094l8.7969-8.7812h8.8906l-11.688 10.969 12.594 12.953h-9.2656l-9.3281-9.9688v9.9688h-7.6562z"/>
  </symbol>
  <symbol id="m" overflow="visible">
   <path d="m27.734-14.562v14.562h-7.7031v-11.109c0-2.0938-0.046875-3.5312-0.14062-4.3125-0.085937-0.78125-0.24219-1.3594-0.46875-1.7344-0.30469-0.5-0.71094-0.88281-1.2188-1.1562-0.51172-0.28125-1.0938-0.42188-1.75-0.42188-1.5938 0-2.8516 0.61719-3.7656 1.8438-0.90625 1.2305-1.3594 2.9375-1.3594 5.125v11.766h-7.6562v-33.234h7.6562v12.812c1.1445-1.3945 2.3633-2.4219 3.6562-3.0781 1.3008-0.66406 2.7383-1 4.3125-1 2.7578 0 4.8516 0.85156 6.2812 2.5469 1.4375 1.6875 2.1562 4.1523 2.1562 7.3906z"/>
  </symbol>
  <symbol id="l" overflow="visible">
   <path d="m4.0156-31.891h8.2188v31.891h-8.2188z"/>
  </symbol>
  <symbol id="k" overflow="visible">
   <path d="m23-23.172v6.2344c-1.0312-0.71875-2.0742-1.2422-3.125-1.5781-1.043-0.34375-2.125-0.51562-3.25-0.51562-2.1367 0-3.8047 0.625-5 1.875-1.1875 1.2422-1.7812 2.9805-1.7812 5.2188 0 2.2305 0.59375 3.9688 1.7812 5.2188 1.1953 1.25 2.8633 1.875 5 1.875 1.1953 0 2.332-0.17578 3.4062-0.53125 1.0703-0.36328 2.0625-0.89453 2.9688-1.5938v6.2656c-1.1875 0.4375-2.4023 0.76562-3.6406 0.98438-1.2305 0.22656-2.4648 0.34375-3.7031 0.34375-4.3125 0-7.6875-1.1094-10.125-3.3281s-3.6562-5.2969-3.6562-9.2344c0-3.9453 1.2188-7.0234 3.6562-9.2344 2.4375-2.2188 5.8125-3.3281 10.125-3.3281 1.25 0 2.4844 0.10938 3.7031 0.32812s2.4297 0.55469 3.6406 1z"/>
  </symbol>
  <symbol id="j" overflow="visible">
   <path d="m15.062-19.031c-1.6992 0-2.9961 0.60938-3.8906 1.8281-0.88672 1.2188-1.3281 2.9766-1.3281 5.2656 0 2.293 0.44141 4.0469 1.3281 5.2656 0.89453 1.2188 2.1914 1.8281 3.8906 1.8281 1.6641 0 2.9375-0.60938 3.8125-1.8281 0.88281-1.2188 1.3281-2.9727 1.3281-5.2656 0-2.2891-0.44531-4.0469-1.3281-5.2656-0.875-1.2188-2.1484-1.8281-3.8125-1.8281zm0-5.4688c4.1133 0 7.3281 1.1094 9.6406 3.3281s3.4688 5.2969 3.4688 9.2344c0 3.9297-1.1562 7.0078-3.4688 9.2344-2.3125 2.2188-5.5273 3.3281-9.6406 3.3281-4.1367 0-7.3711-1.1094-9.7031-3.3281-2.3242-2.2266-3.4844-5.3047-3.4844-9.2344 0-3.9375 1.1602-7.0156 3.4844-9.2344 2.332-2.2188 5.5664-3.3281 9.7031-3.3281z"/>
  </symbol>
  <symbol id="i" overflow="visible">
   <path d="m27.734-14.562v14.562h-7.7031v-11.156c0-2.0625-0.046875-3.4844-0.14062-4.2656-0.085937-0.78125-0.24219-1.3594-0.46875-1.7344-0.30469-0.5-0.71094-0.88281-1.2188-1.1562-0.51172-0.28125-1.0938-0.42188-1.75-0.42188-1.5938 0-2.8516 0.61719-3.7656 1.8438-0.90625 1.2305-1.3594 2.9375-1.3594 5.125v11.766h-7.6562v-23.922h7.6562v3.5c1.1445-1.3945 2.3633-2.4219 3.6562-3.0781 1.3008-0.66406 2.7383-1 4.3125-1 2.7578 0 4.8516 0.85156 6.2812 2.5469 1.4375 1.6875 2.1562 4.1523 2.1562 7.3906z"/>
  </symbol>
 </defs>
 <g>
  <path d="m350 315c9.2812 0 18.184-3.6875 24.75-10.25 6.5625-6.5664 10.25-15.469 10.25-24.75s-3.6875-18.184-10.25-24.75c-6.5664-6.5625-15.469-10.25-24.75-10.25s-18.184 3.6875-24.75 10.25c-6.5625 6.5664-10.25 15.469-10.25 24.75s3.6875 18.184 10.25 24.75c6.5664 6.5625 15.469 10.25 24.75 10.25zm0-52.5c4.6406 0 9.0938 1.8438 12.375 5.125s5.125 7.7344 5.125 12.375-1.8438 9.0938-5.125 12.375-7.7344 5.125-12.375 5.125-9.0938-1.8438-12.375-5.125-5.125-7.7344-5.125-12.375 1.8438-9.0938 5.125-12.375 7.7344-5.125 12.375-5.125z"/>
  <path d="m385 253.75c4.125-0.042969 7.6484-2.9844 8.4219-7.0352 0.77344-4.0508-1.4141-8.0859-5.2344-9.6445-3.8164-1.5625-8.2031-0.21094-10.488 3.2227-2.2812 3.4336-1.8281 8.0039 1.0898 10.918 1.6758 1.5977 3.8945 2.5039 6.2109 2.5391z"/>
  <path d="m323.75 350h52.5c11.598-0.015625 22.719-4.6289 30.922-12.828 8.1992-8.2031 12.812-19.324 12.828-30.922v-52.5c-0.015625-11.598-4.6289-22.719-12.828-30.922-8.2031-8.1992-19.324-12.812-30.922-12.828h-52.5c-11.598 0.015625-22.719 4.6289-30.922 12.828-8.1992 8.2031-12.812 19.324-12.828 30.922v52.5c0.015625 11.598 4.6289 22.719 12.828 30.922 8.2031 8.1992 19.324 12.812 30.922 12.828zm-26.25-96.25c0-6.9609 2.7656-13.641 7.6875-18.562s11.602-7.6875 18.562-7.6875h52.5c6.9609 0 13.641 2.7656 18.562 7.6875s7.6875 11.602 7.6875 18.562v52.5c0 6.9609-2.7656 13.641-7.6875 18.562s-11.602 7.6875-18.562 7.6875h-52.5c-6.9609 0-13.641-2.7656-18.562-7.6875s-7.6875-11.602-7.6875-18.562z"/>
  <path d="m350 385c-23.207 0-45.461 9.2188-61.871 25.629s-25.629 38.664-25.629 61.871 9.2188 45.461 25.629 61.871 38.664 25.629 61.871 25.629 45.461-9.2188 61.871-25.629 25.629-38.664 25.629-61.871c-0.027344-23.199-9.2539-45.441-25.656-61.844s-38.645-25.629-61.844-25.656zm-38.621 145.86c0.042969-0.070312 0.070313-0.15625 0.10547-0.22656 0.29688-0.55859 0.67188-1.0664 0.99609-1.6172 0.76953-1.2969 1.5586-2.5625 2.4414-3.7695 0.48047-0.64062 1.0156-1.2266 1.5312-1.8477 0.875-1.0078 1.6875-2.0117 2.625-2.9414 0.59375-0.59375 1.2266-1.1562 1.8633-1.75 0.9375-0.875 1.8906-1.6523 2.9062-2.4141 0.69141-0.51562 1.3906-0.99609 2.1094-1.4805 1.043-0.69141 2.1172-1.3281 3.2188-1.9336 0.75391-0.41016 1.4961-0.8125 2.2656-1.1797 1.1719-0.55078 2.3711-1.0234 3.5977-1.4688 0.76172-0.28125 1.5156-0.58594 2.3008-0.82422 1.3555-0.42188 2.7578-0.71875 4.1641-1.0078 0.68359-0.13281 1.3555-0.32422 2.0469-0.42969 4.2773-0.67578 8.6367-0.67578 12.914 0 0.69141 0.10547 1.3633 0.29688 2.0469 0.42969 1.4102 0.28906 2.8008 0.58594 4.1562 1.0078 0.78906 0.23438 1.5391 0.54297 2.3086 0.82422 1.2148 0.44531 2.4141 0.875 3.5859 1.4688 0.76953 0.36719 1.5156 0.76953 2.2656 1.1797 1.1016 0.60547 2.1797 1.2422 3.2305 1.9336 0.70703 0.48047 1.4102 0.96094 2.0898 1.4805 1.0156 0.76172 1.9844 1.5742 2.9297 2.4219 0.62109 0.55859 1.25 1.1094 1.8359 1.6992 0.94531 0.94531 1.8125 1.9609 2.625 2.9922 0.48828 0.59375 1.0156 1.1641 1.4805 1.75l0.007813-0.003906c0.91406 1.2656 1.7656 2.5781 2.5469 3.9297 0.28906 0.48828 0.62109 0.94531 0.875 1.4609 0.042969 0.070313 0.070312 0.16797 0.11328 0.24609-11.484 7.4688-24.883 11.449-38.582 11.461-13.699 0.015625-27.105-3.9414-38.602-11.391zm12.371-67.113c0-6.9609 2.7656-13.641 7.6875-18.562s11.602-7.6875 18.562-7.6875 13.641 2.7656 18.562 7.6875 7.6875 11.602 7.6875 18.562-2.7656 13.641-7.6875 18.562-11.602 7.6875-18.562 7.6875-13.641-2.7656-18.562-7.6875-7.6875-11.602-7.6875-18.562zm78.383 55.43c-0.66406-1.0781-1.4688-2.0391-2.1953-3.0703s-1.2422-1.8281-1.9258-2.6953c-1.2695-1.5742-2.6133-3.082-4.0352-4.5234-0.64062-0.66406-1.2266-1.3828-1.8906-2.0195-2.1172-2.0273-4.3828-3.8945-6.7695-5.5938-0.10547-0.078125-0.22656-0.14062-0.33984-0.21094l-0.003906 0.003906c-2.1055-1.4922-4.3047-2.8477-6.5859-4.0547 0.70703-0.61328 1.3633-1.2852 2.0391-1.9336 0.24609-0.23438 0.48828-0.45312 0.72656-0.69922h-0.003906c1.7266-1.7578 3.2969-3.6562 4.6992-5.6797l0.69141-1.0156v0.003906c1.3477-2.0547 2.5195-4.2148 3.5-6.4688 0.16797-0.36719 0.29688-0.74219 0.45313-1.1094h0.003906c0.96094-2.3555 1.7188-4.7852 2.2578-7.2734 0.0625-0.28906 0.085938-0.59375 0.14844-0.875 2.5391-12.84-0.80469-26.145-9.1172-36.262-8.3086-10.113-20.711-15.977-33.801-15.977-13.094 0-25.496 5.8633-33.805 15.977-8.3125 10.117-11.656 23.422-9.1172 36.262 0.0625 0.28906 0.078125 0.59375 0.14844 0.875 0.53906 2.4844 1.2969 4.9141 2.2578 7.2656 0.15625 0.375 0.29688 0.75391 0.46484 1.1289 0.98438 2.2422 2.1562 4.3984 3.5 6.4453 0.23828 0.35156 0.47656 0.69141 0.70703 1.0234 1.3945 2.0234 2.9609 3.9219 4.6758 5.6797 0.25391 0.24609 0.50781 0.46484 0.74219 0.70703 0.68359 0.64844 1.3281 1.3125 2.0391 1.9258-2.2734 1.2031-4.4688 2.5508-6.5703 4.0273-0.12109 0.085937-0.25391 0.14844-0.375 0.23438h-0.003906c-2.3828 1.7031-4.6445 3.5742-6.7617 5.6016-0.66406 0.62891-1.2422 1.3398-1.8711 1.9961-1.4297 1.4414-2.7812 2.957-4.0547 4.5391-0.68359 0.875-1.3047 1.8125-1.9414 2.7227-0.64062 0.91016-1.5156 1.9766-2.1719 3.0469l0.003906-0.003906c-12.094-13.496-18.484-31.156-17.824-49.266 0.66406-18.113 8.3242-35.262 21.371-47.84 13.043-12.578 30.461-19.605 48.586-19.605 18.121 0 35.539 7.0273 48.582 19.605 13.047 12.578 20.707 29.727 21.371 47.84 0.66016 18.109-5.7266 35.77-17.824 49.266z"/>
  <path d="m350 0c-23.207 0-45.461 9.2188-61.871 25.629s-25.629 38.664-25.629 61.871 9.2188 45.461 25.629 61.871 38.664 25.629 61.871 25.629 45.461-9.2188 61.871-25.629 25.629-38.664 25.629-61.871c-0.027344-23.199-9.2539-45.441-25.656-61.844s-38.645-25.629-61.844-25.656zm-38.621 145.86c0.042969-0.070312 0.070313-0.15625 0.10547-0.22656 0.29688-0.55859 0.67188-1.0664 0.99609-1.6172 0.76953-1.2969 1.5586-2.5625 2.4414-3.7695 0.48047-0.64062 1.0156-1.2266 1.5312-1.8477 0.875-1.0078 1.6875-2.0117 2.625-2.9414 0.59375-0.59375 1.2266-1.1562 1.8633-1.75 0.9375-0.875 1.8906-1.6523 2.9062-2.4141 0.69141-0.51562 1.3906-0.99609 2.1094-1.4805 1.043-0.69141 2.1172-1.3281 3.2188-1.9336 0.75391-0.41016 1.4961-0.8125 2.2656-1.1797 1.1719-0.55078 2.3711-1.0234 3.5977-1.4688 0.76172-0.28125 1.5156-0.58594 2.3008-0.82422 1.3555-0.42188 2.7578-0.71875 4.1641-1.0078 0.68359-0.13281 1.3555-0.32422 2.0469-0.42969 4.2773-0.67578 8.6367-0.67578 12.914 0 0.69141 0.10547 1.3633 0.29688 2.0469 0.42969 1.4102 0.28906 2.8008 0.58594 4.1562 1.0078 0.78906 0.23438 1.5391 0.54297 2.3086 0.82422 1.2148 0.44531 2.4141 0.875 3.5859 1.4688 0.76953 0.36719 1.5156 0.76953 2.2656 1.1797 1.1016 0.60547 2.1797 1.2422 3.2305 1.9336 0.70703 0.48047 1.4102 0.96094 2.0898 1.4805 1.0156 0.76172 1.9844 1.5742 2.9297 2.4219 0.62109 0.55859 1.25 1.1094 1.8359 1.6992 0.94531 0.94531 1.8125 1.9609 2.625 2.9922 0.48828 0.59375 1.0156 1.1641 1.4805 1.75l0.007813-0.003906c0.91406 1.2656 1.7656 2.5781 2.5469 3.9297 0.28906 0.48828 0.62109 0.94531 0.875 1.4609 0.042969 0.070313 0.070312 0.16797 0.11328 0.24609-11.484 7.4688-24.883 11.449-38.582 11.461-13.699 0.015625-27.105-3.9414-38.602-11.391zm12.371-67.113c0-6.9609 2.7656-13.641 7.6875-18.562s11.602-7.6875 18.562-7.6875 13.641 2.7656 18.562 7.6875 7.6875 11.602 7.6875 18.562-2.7656 13.641-7.6875 18.562-11.602 7.6875-18.562 7.6875-13.641-2.7656-18.562-7.6875-7.6875-11.602-7.6875-18.562zm78.383 55.43c-0.66406-1.0781-1.4688-2.0391-2.1953-3.0703s-1.2422-1.8281-1.9258-2.6953c-1.2695-1.5742-2.6133-3.082-4.0352-4.5234-0.64062-0.66406-1.2266-1.3828-1.8906-2.0195-2.1172-2.0273-4.3828-3.8945-6.7695-5.5938-0.10547-0.078125-0.22656-0.14062-0.33984-0.21094l-0.003906 0.003906c-2.1055-1.4922-4.3047-2.8477-6.5859-4.0547 0.70703-0.61328 1.3633-1.2852 2.0391-1.9336 0.24609-0.23438 0.48828-0.45312 0.72656-0.69922h-0.003906c1.7266-1.7578 3.2969-3.6562 4.6992-5.6797l0.69141-1.0156v0.003906c1.3477-2.0547 2.5195-4.2148 3.5-6.4688 0.16797-0.36719 0.29688-0.74219 0.45313-1.1094h0.003906c0.96094-2.3555 1.7188-4.7852 2.2578-7.2734 0.0625-0.28906 0.085938-0.59375 0.14844-0.875 2.5391-12.84-0.80469-26.145-9.1172-36.262-8.3086-10.113-20.711-15.977-33.801-15.977-13.094 0-25.496 5.8633-33.805 15.977-8.3125 10.117-11.656 23.422-9.1172 36.262 0.0625 0.28906 0.078125 0.59375 0.14844 0.875 0.53906 2.4844 1.2969 4.9141 2.2578 7.2656 0.15625 0.375 0.29688 0.75391 0.46484 1.1289 0.98438 2.2422 2.1562 4.3984 3.5 6.4453 0.23828 0.35156 0.47656 0.69141 0.70703 1.0234 1.3945 2.0234 2.9609 3.9219 4.6758 5.6797 0.25391 0.24609 0.50781 0.46484 0.74219 0.70703 0.68359 0.64844 1.3281 1.3125 2.0391 1.9258-2.2734 1.2031-4.4688 2.5508-6.5703 4.0273-0.12109 0.085937-0.25391 0.14844-0.375 0.23438h-0.003906c-2.3828 1.7031-4.6445 3.5742-6.7617 5.6016-0.66406 0.62891-1.2422 1.3398-1.8711 1.9961-1.4297 1.4414-2.7812 2.957-4.0547 4.5391-0.68359 0.875-1.3047 1.8125-1.9414 2.7227-0.64062 0.91016-1.5156 1.9766-2.1719 3.0469l0.003906-0.003906c-12.094-13.496-18.484-31.156-17.824-49.266 0.66406-18.113 8.3242-35.262 21.371-47.84 13.043-12.578 30.461-19.605 48.586-19.605 18.121 0 35.539 7.0273 48.582 19.605 13.047 12.578 20.707 29.727 21.371 47.84 0.66016 18.109-5.7266 35.77-17.824 49.266z"/>
  <path d="m248.05 280c0.019531-26.684-12.129-51.926-32.996-68.555-20.871-16.629-48.184-22.836-74.191-16.859-26.008 5.9766-47.871 23.488-59.383 47.562-11.516 24.074-11.422 52.082 0.25 76.082 11.668 23.996 33.645 41.363 59.691 47.172s53.316-0.57812 74.078-17.344c20.562-16.613 32.523-41.625 32.551-68.059zm-157.5 0c-0.011719-23.043 11.316-44.613 30.297-57.684 18.977-13.07 43.172-15.961 64.695-7.7344 21.523 8.2266 37.617 26.52 43.043 48.914 5.4219 22.395-0.52734 46.023-15.902 63.184-0.67188-1.0781-1.4688-2.0391-2.1953-3.0703-0.72656-1.0312-1.2422-1.8281-1.9258-2.6953-1.2617-1.5938-2.625-3.0703-4.0352-4.5234-0.64062-0.66406-1.2344-1.3828-1.8984-2.0195-2.1172-2.0273-4.3789-3.8945-6.7656-5.5938-0.10547-0.078125-0.23438-0.14062-0.33984-0.21094v0.003906c-2.1094-1.4883-4.3086-2.8398-6.5898-4.0547 0.70703-0.61328 1.3633-1.2852 2.0312-1.9336 0.24609-0.23438 0.5-0.45312 0.73438-0.69922 1.7227-1.7578 3.2891-3.6562 4.6914-5.6797 0.24609-0.33984 0.47266-0.67188 0.69141-1.0156v0.003906c1.3477-2.0547 2.5195-4.2148 3.5-6.4688 0.15625-0.36719 0.29687-0.74219 0.44531-1.1094 0.97266-2.3516 1.7266-4.7852 2.2578-7.2734 0.070313-0.28906 0.097657-0.59375 0.15625-0.875 0.54688-2.7031 0.83984-5.4492 0.875-8.207 0-15.629-8.3359-30.074-21.875-37.887-13.535-7.8164-30.211-7.8164-43.75 0-13.535 7.8125-21.875 22.258-21.875 37.887 0.019532 2.7578 0.29688 5.5039 0.82422 8.207 0.0625 0.28906 0.085938 0.59375 0.15625 0.875 0.53125 2.4844 1.2852 4.918 2.2578 7.2656 0.14844 0.375 0.29688 0.75391 0.45312 1.1289h0.003906c0.98438 2.2422 2.1562 4.3984 3.5 6.4453 0.22656 0.35156 0.47266 0.69141 0.69922 1.0234 1.3984 2.0234 2.9648 3.9219 4.6797 5.6797 0.24609 0.24609 0.50781 0.46484 0.75391 0.70703 0.66406 0.64844 1.3125 1.3125 2.0195 1.9258-2.2695 1.207-4.4648 2.5547-6.5703 4.0273-0.11328 0.085937-0.25391 0.14844-0.375 0.23438-2.3828 1.7031-4.6406 3.5781-6.7578 5.6016-0.66406 0.62891-1.25 1.3398-1.8828 1.9961-1.4102 1.4609-2.7812 2.9414-4.0508 4.543-0.68359 0.875-1.2852 1.8125-1.9336 2.7227-0.64844 0.91016-1.5156 1.9766-2.1719 3.0469l0.003907-0.007812c-11.531-12.809-17.902-29.441-17.875-46.68zm43.75-8.75c0-6.9609 2.7656-13.641 7.6875-18.562 4.9219-4.9219 11.602-7.6875 18.562-7.6875 6.9609 0 13.637 2.7656 18.562 7.6875 4.9219 4.9219 7.6875 11.602 7.6875 18.562s-2.7656 13.641-7.6875 18.562c-4.9258 4.9219-11.602 7.6875-18.562 7.6875-6.9609 0-13.641-2.7656-18.562-7.6875-4.9219-4.9219-7.6875-11.602-7.6875-18.562zm-12.375 67.113c0-0.070312 0.0625-0.15625 0.097656-0.22656 0.29688-0.55859 0.67188-1.0664 0.99609-1.6172v-0.003906c0.75391-1.2969 1.5742-2.5547 2.4531-3.7695 0.47266-0.64062 1.0156-1.2266 1.5234-1.8477 0.875-1.0078 1.6992-2.0117 2.625-2.9414 0.60547-0.59375 1.2344-1.1562 1.8633-1.75 0.94531-0.875 1.8984-1.6523 2.9062-2.4141 0.69141-0.51562 1.3984-0.99609 2.1172-1.4805 1.043-0.69141 2.1172-1.3281 3.2188-1.9336 0.75391-0.41016 1.4961-0.8125 2.2656-1.1797 1.1641-0.55078 2.3711-1.0234 3.5859-1.4688 0.76953-0.28125 1.5156-0.58594 2.3008-0.82422 1.3633-0.42188 2.7656-0.71875 4.1719-1.0078 0.68359-0.13281 1.3477-0.32422 2.0391-0.42969l0.003906 0.003906c4.2773-0.67578 8.6367-0.67578 12.914 0 0.69922 0.10547 1.3633 0.29688 2.0469 0.42969 1.4102 0.28906 2.8086 0.58594 4.1641 1.0078 0.78906 0.23438 1.5391 0.54297 2.3086 0.82422 1.207 0.44531 2.4141 0.875 3.5859 1.4688 0.76953 0.36719 1.5156 0.76953 2.2578 1.1797 1.1016 0.60547 2.1797 1.2422 3.2383 1.9336 0.70703 0.48047 1.4102 0.96094 2.0898 1.4805 1.0156 0.76172 1.9844 1.5742 2.9297 2.4219 0.62109 0.55859 1.2422 1.1094 1.8359 1.6992 0.9375 0.94531 1.8125 1.9609 2.625 2.9922 0.5 0.59375 1.0234 1.1641 1.4805 1.75l0.003906-0.003906c0.92188 1.2656 1.7695 2.5742 2.5469 3.9297 0.29688 0.48828 0.62891 0.94531 0.875 1.4609 0 0.070313 0.070312 0.16797 0.11328 0.24609-11.48 7.4688-24.883 11.449-38.578 11.461-13.699 0.015625-27.109-3.9414-38.605-11.391z"/>
  <path d="m542.5 192.5c-23.207 0-45.461 9.2188-61.871 25.629s-25.629 38.664-25.629 61.871 9.2188 45.461 25.629 61.871 38.664 25.629 61.871 25.629 45.461-9.2188 61.871-25.629 25.629-38.664 25.629-61.871c-0.027344-23.199-9.2539-45.441-25.656-61.844s-38.645-25.629-61.844-25.656zm-38.621 145.86c0.042969-0.070312 0.070313-0.15625 0.10547-0.22656 0.29688-0.55859 0.67188-1.0664 0.99609-1.6172 0.76953-1.2969 1.5586-2.5625 2.4414-3.7695 0.48047-0.64062 1.0156-1.2266 1.5312-1.8477 0.875-1.0078 1.6875-2.0117 2.625-2.9414 0.59375-0.59375 1.2266-1.1562 1.8633-1.75 0.9375-0.875 1.8906-1.6523 2.9062-2.4141 0.69141-0.51562 1.3906-0.99609 2.1094-1.4805 1.043-0.69141 2.1172-1.3281 3.2188-1.9336 0.75391-0.41016 1.4961-0.8125 2.2656-1.1797 1.1719-0.55078 2.3711-1.0234 3.5977-1.4688 0.76172-0.28125 1.5156-0.58594 2.3008-0.82422 1.3555-0.42188 2.7578-0.71875 4.1641-1.0078 0.68359-0.13281 1.3555-0.32422 2.0469-0.42969 4.2773-0.67578 8.6367-0.67578 12.914 0 0.69141 0.10547 1.3633 0.29688 2.0469 0.42969 1.4102 0.28906 2.8008 0.58594 4.1562 1.0078 0.78906 0.23438 1.5391 0.54297 2.3086 0.82422 1.2148 0.44531 2.4141 0.875 3.5859 1.4688 0.76953 0.36719 1.5156 0.76953 2.2656 1.1797 1.1016 0.60547 2.1797 1.2422 3.2305 1.9336 0.70703 0.48047 1.4102 0.96094 2.0898 1.4805 1.0156 0.76172 1.9844 1.5742 2.9297 2.4219 0.62109 0.55859 1.25 1.1094 1.8359 1.6992 0.94531 0.94531 1.8125 1.9609 2.625 2.9922 0.48828 0.59375 1.0156 1.1641 1.4805 1.75l0.007813-0.003906c0.91406 1.2656 1.7656 2.5781 2.5469 3.9297 0.28906 0.48828 0.62109 0.94531 0.875 1.4609 0.042969 0.070313 0.070312 0.16797 0.11328 0.24609-11.484 7.4688-24.883 11.449-38.582 11.461-13.699 0.015625-27.105-3.9414-38.602-11.391zm12.371-67.113c0-6.9609 2.7656-13.641 7.6875-18.562s11.602-7.6875 18.562-7.6875 13.641 2.7656 18.562 7.6875 7.6875 11.602 7.6875 18.562-2.7656 13.641-7.6875 18.562-11.602 7.6875-18.562 7.6875-13.641-2.7656-18.562-7.6875-7.6875-11.602-7.6875-18.562zm78.383 55.43c-0.66406-1.0781-1.4688-2.0391-2.1953-3.0703s-1.2422-1.8281-1.9258-2.6953c-1.2695-1.5742-2.6133-3.082-4.0352-4.5234-0.64062-0.66406-1.2266-1.3828-1.8906-2.0195-2.1172-2.0273-4.3828-3.8945-6.7695-5.5938-0.10547-0.078125-0.22656-0.14062-0.33984-0.21094l-0.003906 0.003906c-2.1055-1.4922-4.3047-2.8477-6.5859-4.0547 0.70703-0.61328 1.3633-1.2852 2.0391-1.9336 0.24609-0.23438 0.48828-0.45312 0.72656-0.69922h-0.003906c1.7266-1.7578 3.2969-3.6562 4.6992-5.6797l0.69141-1.0156v0.003906c1.3477-2.0547 2.5195-4.2148 3.5-6.4688 0.16797-0.36719 0.29688-0.74219 0.45313-1.1094h0.003906c0.96094-2.3555 1.7188-4.7852 2.2578-7.2734 0.0625-0.28906 0.085938-0.59375 0.14844-0.875 2.5391-12.84-0.80469-26.145-9.1172-36.262-8.3086-10.113-20.711-15.977-33.801-15.977-13.094 0-25.496 5.8633-33.805 15.977-8.3125 10.117-11.656 23.422-9.1172 36.262 0.0625 0.28906 0.078125 0.59375 0.14844 0.875 0.53906 2.4844 1.2969 4.9141 2.2578 7.2656 0.15625 0.375 0.29688 0.75391 0.46484 1.1289 0.98438 2.2422 2.1562 4.3984 3.5 6.4453 0.23828 0.35156 0.47656 0.69141 0.70703 1.0234 1.3945 2.0234 2.9609 3.9219 4.6758 5.6797 0.25391 0.24609 0.50781 0.46484 0.74219 0.70703 0.68359 0.64844 1.3281 1.3125 2.0391 1.9258-2.2734 1.2031-4.4688 2.5508-6.5703 4.0273-0.12109 0.085937-0.25391 0.14844-0.375 0.23438h-0.003906c-2.3828 1.7031-4.6445 3.5742-6.7617 5.6016-0.66406 0.62891-1.2422 1.3398-1.8711 1.9961-1.4297 1.4414-2.7812 2.957-4.0547 4.5391-0.68359 0.875-1.3047 1.8125-1.9414 2.7227-0.64062 0.91016-1.5156 1.9766-2.1719 3.0469l0.003906-0.003906c-12.094-13.496-18.484-31.156-17.824-49.266 0.66406-18.113 8.3242-35.262 21.371-47.84 13.043-12.578 30.461-19.605 48.586-19.605 18.121 0 35.539 7.0273 48.582 19.605 13.047 12.578 20.707 29.727 21.371 47.84 0.66016 18.109-5.7266 35.77-17.824 49.266z"/>
  <path d="m207.52 381.35c-2.8047-3.9375-8.2695-4.8516-12.207-2.0469-3.9336 2.8047-4.8516 8.2695-2.0469 12.207 12.672 17.809 28.277 33.34 46.148 45.926 3.9531 2.7891 9.4141 1.8398 12.203-2.1133 2.7852-3.9531 1.8398-9.4141-2.1133-12.199-16.266-11.441-30.461-25.57-41.984-41.773z"/>
  <path d="m239.47 122.5c-17.902 12.594-33.531 28.141-46.215 45.98-1.3867 1.8906-1.957 4.2539-1.582 6.5664 0.37109 2.3125 1.6562 4.375 3.5625 5.7344s4.2773 1.8945 6.5859 1.4922c2.3047-0.40625 4.3555-1.7148 5.6875-3.6406 11.527-16.219 25.73-30.359 42-41.816 2.0117-1.2852 3.4141-3.3359 3.8789-5.6758 0.46875-2.3438-0.042969-4.7734-1.4141-6.7305-1.3711-1.9531-3.4844-3.2656-5.8438-3.625s-4.7656 0.25781-6.6602 1.7148z"/>
  <path d="m493.11 179.5c2.7812 3.957 8.2383 4.9102 12.195 2.1328 3.9531-2.7812 4.9102-8.2383 2.1289-12.195-12.805-18.238-28.676-34.117-46.906-46.934-1.8984-1.3359-4.25-1.8633-6.5391-1.4648-2.2852 0.39844-4.3203 1.6875-5.6562 3.5859-2.7812 3.9531-1.832 9.4141 2.1211 12.195 16.582 11.652 31.016 26.094 42.656 42.68z"/>
  <path d="m493.15 380.45c-11.645 16.582-26.074 31.02-42.645 42.676-3.9531 2.7812-4.9062 8.2383-2.125 12.191s8.2422 4.9023 12.195 2.1211c18.23-12.812 34.109-28.688 46.926-46.918 2.7812-3.9609 1.8242-9.4297-2.1406-12.207-3.9609-2.7812-9.4297-1.8242-12.211 2.1367z"/>
  <use x="70" y="691.25" xlink:href="#o"/>
  <use x="102.109375" y="691.25" xlink:href="#c"/>
  <use x="123.683594" y="691.25" xlink:href="#a"/>
  <use x="153.355469" y="691.25" xlink:href="#b"/>
  <use x="182.878906" y="691.25" xlink:href="#h"/>
  <use x="203.792969" y="691.25" xlink:href="#a"/>
  <use x="233.464844" y="691.25" xlink:href="#g"/>
  <use x="280.011719" y="691.25" xlink:href="#f"/>
  <use x="311.328125" y="691.25" xlink:href="#e"/>
  <use x="355.078125" y="691.25" xlink:href="#d"/>
  <use x="388.425781" y="691.25" xlink:href="#a"/>
  <use x="418.097656" y="691.25" xlink:href="#c"/>
  <use x="439.675781" y="691.25" xlink:href="#n"/>
  <use x="468.769531" y="691.25" xlink:href="#b"/>
  <use x="498.292969" y="691.25" xlink:href="#m"/>
  <use x="544.671875" y="691.25" xlink:href="#l"/>
  <use x="560.949219" y="691.25" xlink:href="#k"/>
  <use x="586.882812" y="691.25" xlink:href="#j"/>
  <use x="616.9375" y="691.25" xlink:href="#i"/>
 </g>
</svg>
